<svg width="30" height="30" viewBox="0 0 30 30" fill="none" xmlns="http://www.w3.org/2000/svg">
    <path d="M4.64457 14.1213H6.73414C7.10217 13.0283 8.13612 12.2385 9.35164 12.2385C10.5672 12.2385 11.6011 13.0283 11.9691 14.1213H25.3555C25.8409 14.1213 26.2344 14.5148 26.2344 15.0002C26.2344 15.4856 25.8409 15.8791 25.3555 15.8791H11.9691C11.6011 16.9722 10.5671 17.7619 9.35159 17.7619C8.13606 17.7619 7.10211 16.9722 6.73409 15.8791H4.64451C4.15912 15.8791 3.76561 15.4856 3.76561 15.0002C3.76561 14.5148 4.15912 14.1213 4.64457 14.1213ZM9.35159 16.0041C9.90512 16.0041 10.3555 15.5538 10.3555 15.0002C10.3555 14.4467 9.90512 13.9963 9.35159 13.9963C8.79805 13.9963 8.3477 14.4467 8.3477 15.0002C8.3477 15.5538 8.79805 16.0041 9.35159 16.0041Z" fill="white"/>
    <path d="M4.64457 21.6523H14.2653C14.6333 20.5593 15.6672 19.7695 16.8828 19.7695C18.0984 19.7695 19.1323 20.5593 19.5003 21.6523H25.3555C25.8409 21.6523 26.2344 22.0458 26.2344 22.5312C26.2344 23.0166 25.8409 23.4101 25.3555 23.4101H19.5003C19.1323 24.5032 18.0984 25.2929 16.8828 25.2929C15.6672 25.2929 14.6333 24.5032 14.2653 23.4101H4.64451C4.15912 23.4101 3.76561 23.0166 3.76561 22.5312C3.76561 22.0458 4.15912 21.6523 4.64457 21.6523ZM16.8828 23.5352C17.4363 23.5352 17.8867 23.0848 17.8867 22.5313C17.8867 21.9778 17.4363 21.5274 16.8828 21.5274C16.3293 21.5274 15.8789 21.9777 15.8789 22.5312C15.8789 23.0848 16.3293 23.5352 16.8828 23.5352Z" fill="white"/>
</svg>
